<svg height="178" viewBox="0 0 179 178" width="179" xmlns="http://www.w3.org/2000/svg">
    <g data-name="Group 82" id="Group_82" transform="translate(-61 -599.5)">
        <ellipse cx="89.5" cy="89" data-name="Ellipse 5" fill="#daba73" id="Ellipse_5" rx="89.5"
            ry="89" transform="translate(61 599.5)" />
        <g data-name="Group 50" id="Group_50" transform="translate(113.141 638.043)">
            <g data-name="Group 48" id="Group_48">
                <path
                    d="M-2.991,41.217a2,2,0,0,1,0-2.809L46.786-12.064a2,2,0,0,1,3.424,1.4V90.285a2,2,0,0,1-3.424,1.4Z"
                    data-name="Subtraction 3" fill="#780000" id="Subtraction_3"
                    transform="translate(79.625 0) rotate(90)" />
                <path d="M0,0H64.167L56.477,42.946H4.858Z" data-name="Path 16" fill="#780000"
                    id="Path_16" transform="translate(10.063 39.82)" />
            </g>
            <path
                d="M12.3,0c6.793,0,12.3,7.74,12.3,17.287,0,4.287-3.733,28.03-3.733,28.03H3.731S0,26.834,0,17.287,5.507,0,12.3,0Z"
                data-name="Path 17" fill="#daba73" id="Path_17"
                transform="translate(30.913 42.677)" />
            <g data-name="Group 49" id="Group_49" transform="translate(23.586 20.457)">
                <path d="M2.578,1.824,30.552,0V11.478L0,13.73Z" data-name="Path 18" fill="#fff"
                    id="Path_18" transform="translate(3.098 3.857)" />
                <circle cx="5.5" cy="5.5" data-name="Ellipse 12" fill="#fff" id="Ellipse_12" r="5.5"
                    transform="translate(0.273 11)" />
                <circle cx="5.5" cy="5.5" data-name="Ellipse 13" fill="#fff" id="Ellipse_13" r="5.5"
                    transform="translate(0.273 0)" />
                <circle cx="5.5" cy="5.5" data-name="Ellipse 14" fill="#fff" id="Ellipse_14" r="5.5"
                    transform="translate(27.273 0)" />
                <circle cx="5.5" cy="5.5" data-name="Ellipse 15" fill="#fff" id="Ellipse_15" r="5.5"
                    transform="translate(27.273 11)" />
            </g>
        </g>
    </g>
</svg>
