<svg xmlns="http://www.w3.org/2000/svg" width="414" height="414" viewBox="0 0 414 414">
  <g id="img_play_icon" transform="translate(-5904 -922)">
    <g id="Rectangle_64" data-name="Rectangle 64" transform="translate(5993 983)" fill="#fff" stroke="#707070" stroke-width="1">
      <rect width="239" height="284" stroke="none"/>
      <rect x="0.5" y="0.5" width="238" height="283" fill="none"/>
    </g>
    <path id="Exclusion_1" data-name="Exclusion 1" d="M413,515a208.535,208.535,0,0,1-41.718-4.206,205.869,205.869,0,0,1-74.018-31.147,207.6,207.6,0,0,1-75-91.074,205.961,205.961,0,0,1-12.062-38.856,209.021,209.021,0,0,1,0-83.435,205.869,205.869,0,0,1,31.147-74.018,207.6,207.6,0,0,1,91.074-75,205.96,205.96,0,0,1,38.856-12.062,209.019,209.019,0,0,1,83.435,0,205.868,205.868,0,0,1,74.018,31.147,207.6,207.6,0,0,1,75,91.074,205.958,205.958,0,0,1,12.062,38.856,209.015,209.015,0,0,1,0,83.435,205.867,205.867,0,0,1-31.147,74.018,207.6,207.6,0,0,1-91.074,75,205.958,205.958,0,0,1-38.856,12.062A208.532,208.532,0,0,1,413,515ZM364.008,208.653A5.014,5.014,0,0,0,359,213.661V390.34a5.013,5.013,0,0,0,5.008,5.007,4.927,4.927,0,0,0,2.492-.677l153-88.34a5,5,0,0,0,0-8.661l-153-88.339A4.927,4.927,0,0,0,364.008,208.653Z" transform="translate(5698 821)" fill="#00c1e0"/>
  </g>
</svg>
