<svg xmlns="http://www.w3.org/2000/svg" width="276" height="276" viewBox="0 0 276 276">
  <g id="img_correct" transform="translate(-42 -140)">
    <g id="Rectangle_7" data-name="Rectangle 7" transform="translate(42 140)" fill="none" stroke="#35b200" stroke-width="1">
      <rect width="276" height="276" rx="100" stroke="none"/>
      <rect x="0.5" y="0.5" width="275" height="275" rx="99.5" fill="none"/>
    </g>
    <g id="Group_22" data-name="Group 22" transform="translate(-1663 -1119)">
      <path id="Subtraction_6" data-name="Subtraction 6" d="M88,176a87.591,87.591,0,0,1-49.2-15.029A88.258,88.258,0,0,1,6.916,122.253,87.885,87.885,0,0,1,15.029,38.8,88.262,88.262,0,0,1,53.747,6.916,87.884,87.884,0,0,1,137.2,15.029,88.751,88.751,0,0,1,147.866,23.5l-16.3,13.636a66.8,66.8,0,1,0,19.088,27.113l14.627-18.369c1.4,2.564,2.678,5.21,3.8,7.864a87.885,87.885,0,0,1-8.113,83.455,88.257,88.257,0,0,1-38.718,31.883A87.432,87.432,0,0,1,88,176Z" transform="translate(1752 1309)" fill="#00b955"/>
      <path id="Path_9" data-name="Path 9" d="M0,0,26.973-18.572,47.808,13.154S78.47-21.3,105.579-42.723s50.668-29.833,50.668-29.833A836.615,836.615,0,0,0,98.95-11C71.84,21.678,47.808,58.14,47.808,58.14Z" transform="translate(1794 1384)" fill="#00b955"/>
    </g>
  </g>
</svg>
