<svg xmlns="http://www.w3.org/2000/svg" width="163" height="186.694" viewBox="0 0 163 186.694">
  <g id="Path_26" data-name="Path 26" transform="translate(168 -3.653) rotate(90)" fill="none">
    <path d="M92.67,7.5a5,5,0,0,1,8.66,0l88.34,153a5,5,0,0,1-4.33,7.5H8.66a5,5,0,0,1-4.33-7.5Z" stroke="none"/>
    <path d="M 96.99999237060547 4.999618530273438 C 98.68389129638672 4.999618530273438 100.3677825927734 5.832901000976563 101.330078125 7.499481201171875 L 189.6695709228516 160.4999084472656 C 191.5941619873047 163.8332366943359 189.1885681152344 167.9999847412109 185.3394927978516 167.9999847412109 L 8.660491943359375 167.9999847412109 C 4.811416625976563 167.9999847412109 2.40582275390625 163.8332366943359 4.330413818359375 160.4999084472656 L 92.66990661621094 7.499481201171875 C 93.6322021484375 5.832901000976563 95.31609344482422 4.999618530273438 96.99999237060547 4.999618530273438 Z" stroke="none" fill="#fff"/>
  </g>
</svg>
