<svg xmlns="http://www.w3.org/2000/svg" width="166" height="166" viewBox="0 0 166 166">
  <g id="Path_23" data-name="Path 23" fill="#fff">
    <path d="M 112 165.5 L 54 165.5 C 46.7773323059082 165.5 39.77095794677734 164.0855407714844 33.17554092407227 161.2959136962891 C 26.80485343933105 158.6013336181641 21.08329200744629 154.7437286376953 16.16979217529297 149.8302154541016 C 11.25627040863037 144.9167022705078 7.398666858673096 139.1951446533203 4.704083442687988 132.824462890625 C 1.914458274841309 126.2290420532227 0.5 119.2226638793945 0.5 112 L 0.5 54 C 0.5 46.7773323059082 1.914458274841309 39.77095794677734 4.704083442687988 33.17554092407227 C 7.398666858673096 26.80485343933105 11.25627040863037 21.08329200744629 16.16979217529297 16.16979217529297 C 21.08329200744629 11.25627040863037 26.80485343933105 7.398666858673096 33.17554092407227 4.704083442687988 C 39.77095794677734 1.914458274841309 46.7773323059082 0.5 54 0.5 L 112 0.5 C 119.2226638793945 0.5 126.2290420532227 1.914458274841309 132.824462890625 4.704083442687988 C 139.1951446533203 7.398666858673096 144.9167022705078 11.25627040863037 149.8302154541016 16.16979217529297 C 154.7437286376953 21.08329200744629 158.6013336181641 26.80485343933105 161.2959136962891 33.17554092407227 C 164.0855407714844 39.77095794677734 165.5 46.7773323059082 165.5 54 L 165.5 112 C 165.5 119.2226638793945 164.0855407714844 126.2290420532227 161.2959136962891 132.824462890625 C 158.6013336181641 139.1951446533203 154.7437286376953 144.9167022705078 149.8302154541016 149.8302154541016 C 144.9167022705078 154.7437286376953 139.1951446533203 158.6013336181641 132.824462890625 161.2959136962891 C 126.2290420532227 164.0855407714844 119.2226638793945 165.5 112 165.5 Z" stroke="none"/>
    <path d="M 54 1 C 46.84461212158203 1 39.90376281738281 2.401168823242188 33.37030029296875 5.164581298828125 C 27.05921936035156 7.833953857421875 21.39108276367188 11.65559387207031 16.52333068847656 16.52333068847656 C 11.65559387207031 21.39108276367188 7.833953857421875 27.05921936035156 5.164581298828125 33.37030029296875 C 2.401168823242188 39.90376281738281 1 46.84461212158203 1 54 L 1 112 C 1 119.1553955078125 2.401168823242188 126.0962219238281 5.164581298828125 132.6296691894531 C 7.833953857421875 138.9407653808594 11.65559387207031 144.6089172363281 16.52333068847656 149.4766540527344 C 21.39108276367188 154.3444061279297 27.05921936035156 158.1660461425781 33.37030029296875 160.8354187011719 C 39.90376281738281 163.5988311767578 46.84461212158203 165 54 165 L 112 165 C 119.1553955078125 165 126.0962219238281 163.5988311767578 132.6296691894531 160.8354187011719 C 138.9407653808594 158.1660461425781 144.6089172363281 154.3444061279297 149.4766540527344 149.4766540527344 C 154.3444061279297 144.6089172363281 158.1660461425781 138.9407653808594 160.8354187011719 132.6296691894531 C 163.5988311767578 126.0962219238281 165 119.1553955078125 165 112 L 165 54 C 165 46.84461212158203 163.5988311767578 39.90376281738281 160.8354187011719 33.37030029296875 C 158.1660461425781 27.05921936035156 154.3444061279297 21.39108276367188 149.4766540527344 16.52333068847656 C 144.6089172363281 11.65559387207031 138.9407653808594 7.833953857421875 132.6296691894531 5.164581298828125 C 126.0962219238281 2.401168823242188 119.1553955078125 1 112 1 L 54 1 M 54 0 L 112 0 C 141.8233642578125 0 166 24.17660522460938 166 54 L 166 112 C 166 141.8233642578125 141.8233642578125 166 112 166 L 54 166 C 24.17660522460938 166 0 141.8233642578125 0 112 L 0 54 C 0 24.17660522460938 24.17660522460938 0 54 0 Z" stroke="none" fill="red"/>
  </g>
</svg>
