<svg xmlns="http://www.w3.org/2000/svg" xmlns:xlink="http://www.w3.org/1999/xlink" width="492" height="492" viewBox="0 0 492 492">
  <defs>
    <filter id="play_button" x="0" y="0" width="492" height="492" filterUnits="userSpaceOnUse">
      <feOffset dy="10" input="SourceAlpha"/>
      <feGaussianBlur stdDeviation="13" result="blur"/>
      <feFlood flood-color="#00c1e0" flood-opacity="0.188"/>
      <feComposite operator="in" in2="blur"/>
      <feComposite in="SourceGraphic"/>
    </filter>
  </defs>
  <g transform="matrix(1, 0, 0, 1, 0, 0)" filter="url(#play_button)">
    <path id="play_button-2" data-name="play_button" d="M207,414a208.53,208.53,0,0,1-41.718-4.206,205.867,205.867,0,0,1-74.018-31.147,207.605,207.605,0,0,1-75-91.074A205.959,205.959,0,0,1,4.206,248.718a209.017,209.017,0,0,1,0-83.435A205.867,205.867,0,0,1,35.352,91.265a207.605,207.605,0,0,1,91.074-75A205.959,205.959,0,0,1,165.282,4.206a209.017,209.017,0,0,1,83.435,0,205.867,205.867,0,0,1,74.018,31.147,207.605,207.605,0,0,1,75,91.074,205.958,205.958,0,0,1,12.062,38.856,209.017,209.017,0,0,1,0,83.435,205.867,205.867,0,0,1-31.147,74.018,207.605,207.605,0,0,1-91.074,75,205.958,205.958,0,0,1-38.856,12.062A208.53,208.53,0,0,1,207,414ZM161.007,113.653A5.013,5.013,0,0,0,156,118.66V295.34a5.013,5.013,0,0,0,5.008,5.008,4.928,4.928,0,0,0,2.493-.678l153-88.34a5,5,0,0,0,0-8.66l-153-88.34A4.929,4.929,0,0,0,161.007,113.653Z" transform="translate(39 29)" fill="#00c1e0"/>
  </g>
</svg>
