<svg xmlns="http://www.w3.org/2000/svg" xmlns:xlink="http://www.w3.org/1999/xlink" width="58.377" height="63.527" viewBox="0 0 58.377 63.527">
  <defs>
    <filter id="Union_3" x="0" y="0" width="58.377" height="63.527" filterUnits="userSpaceOnUse">
      <feOffset input="SourceAlpha"/>
      <feGaussianBlur stdDeviation="1" result="blur"/>
      <feFlood flood-color="#9a8b8d"/>
      <feComposite operator="in" in2="blur"/>
      <feComposite in="SourceGraphic"/>
    </filter>
  </defs>
  <g id="Group_32" data-name="Group 32" transform="translate(3 3)">
    <g transform="matrix(1, 0, 0, 1, -3, -3)" filter="url(#Union_3)">
      <g id="Union_3-2" data-name="Union 3" transform="matrix(0.84, 0.54, -0.54, 0.84, 29.41, 3)" fill="none">
        <path d="M7.879,48.483l3.457-18.452A14.549,14.549,0,0,1,0,15.516,16.09,16.09,0,0,1,15.782,0,14.649,14.649,0,0,1,30.964,14.92,16.067,16.067,0,0,1,17.427,30.232L17.315,48.3Z" stroke="none"/>
        <path d="M 10.29750156402588 46.43593978881836 L 15.32728481292725 46.33908843994141 L 15.42717266082764 30.2198600769043 L 15.43766307830811 28.527099609375 L 17.10888290405273 28.25773048400879 C 20.31240272521973 27.74139022827148 23.27936363220215 26.1091194152832 25.46321296691895 23.66162109375 C 27.65833282470703 21.20148086547852 28.90178298950195 18.08308029174805 28.96452331542969 14.88084030151367 C 29.03154182434082 11.46047019958496 27.76725196838379 8.249850273132324 25.40457344055176 5.840410232543945 C 22.97609329223633 3.363890171051025 19.66840362548828 2.000000238418579 16.09081268310547 2.000000238418579 C 16.00126266479492 2.000000238418579 15.91015243530273 2.000880241394043 15.82015228271484 2.002610206604004 C 8.34470272064209 2.146560192108154 2.146142721176147 8.226329803466797 2.002542734146118 15.555419921875 C 1.884992718696594 21.55532073974609 5.910712718963623 26.70721054077148 11.79237270355225 28.0838794708252 L 13.65459251403809 28.51976013183594 L 13.30235290527344 30.39958953857422 L 10.29750156402588 46.43593978881836 M 7.879142761230469 48.48287963867188 L 11.33656311035156 30.03125 C 4.686882495880127 28.47480964660645 -0.1360573172569275 22.60993957519531 0.002922686049714684 15.51624011993408 C 0.1675726920366287 7.113160133361816 7.231952667236328 0.1676201969385147 15.78164291381836 0.002980198943987489 C 15.88444328308105 0.001000579795800149 15.98852443695068 4.724120969967771e-07 16.09081077575684 4.724120969967771e-07 C 24.49533271789551 4.724120969967771e-07 31.12680244445801 6.617968559265137 30.96414184570313 14.92002010345459 C 30.81414222717285 22.57583999633789 24.93682289123535 29.02184104919434 17.42713356018066 30.23225021362305 L 17.31516265869141 48.30118179321289 L 7.879142761230469 48.48287963867188 Z" stroke="none" fill="#707070"/>
      </g>
    </g>
  </g>
</svg>
